<?xml version="1.0" encoding="us-ascii" standalone="no"?><svg xmlns="http://www.w3.org/2000/svg" xmlns:xlink="http://www.w3.org/1999/xlink" contentStyleType="text/css" height="309px" preserveAspectRatio="none" style="width:217px;height:309px;background:#FFFFFF;" version="1.1" viewBox="0 0 217 309" width="217px" zoomAndPan="magnify"><defs/><g><ellipse cx="111.25" cy="20" fill="#222222" rx="10" ry="10" style="stroke:#222222;stroke-width:1.0;"/><rect fill="#F1F1F1" height="34.1328" rx="12.5" ry="12.5" style="stroke:#181818;stroke-width:0.5;" width="50" x="86.25" y="50"/><text fill="#000000" font-family="sans-serif" font-size="12" lengthAdjust="spacing" textLength="30" x="96.25" y="71.6016">Login</text><rect fill="#F1F1F1" height="34.1328" rx="12.5" ry="12.5" style="stroke:#181818;stroke-width:0.5;" width="95" x="63.75" y="104.1328"/><text fill="#000000" font-family="sans-serif" font-size="12" lengthAdjust="spacing" textLength="75" x="73.75" y="125.7344">Process Data</text><polygon fill="#F1F1F1" points="82.25,158.2656,140.25,158.2656,152.25,170.2656,140.25,182.2656,82.25,182.2656,70.25,170.2656,82.25,158.2656" style="stroke:#181818;stroke-width:0.5;"/><text fill="#000000" font-family="sans-serif" font-size="11" lengthAdjust="spacing" textLength="58" x="82.25" y="174.4229">Data Valid?</text><text fill="#000000" font-family="sans-serif" font-size="11" lengthAdjust="spacing" textLength="18" x="52.25" y="167.9453">yes</text><text fill="#000000" font-family="sans-serif" font-size="11" lengthAdjust="spacing" textLength="14" x="152.25" y="167.9453">no</text><rect fill="#F1F1F1" height="34.1328" rx="12.5" ry="12.5" style="stroke:#181818;stroke-width:0.5;" width="93" x="11" y="192.2656"/><text fill="#000000" font-family="sans-serif" font-size="12" lengthAdjust="spacing" textLength="73" x="21" y="213.8672">Display Data</text><rect fill="#F1F1F1" height="34.1328" rx="12.5" ry="12.5" style="stroke:#181818;stroke-width:0.5;" width="82" x="124" y="192.2656"/><text fill="#000000" font-family="sans-serif" font-size="12" lengthAdjust="spacing" textLength="62" x="134" y="213.8672">Show Error</text><polygon fill="#F1F1F1" points="111.25,232.3984,123.25,244.3984,111.25,256.3984,99.25,244.3984,111.25,232.3984" style="stroke:#181818;stroke-width:0.5;"/><ellipse cx="111.25" cy="287.3984" fill="none" rx="11" ry="11" style="stroke:#222222;stroke-width:1.0;"/><ellipse cx="111.25" cy="287.3984" fill="#222222" rx="6" ry="6" style="stroke:#111111;stroke-width:1.0;"/><line style="stroke:#181818;stroke-width:1.0;" x1="111.25" x2="111.25" y1="30" y2="50"/><polygon fill="#181818" points="107.25,40,111.25,50,115.25,40,111.25,44" style="stroke:#181818;stroke-width:1.0;"/><line style="stroke:#181818;stroke-width:1.0;" x1="111.25" x2="111.25" y1="84.1328" y2="104.1328"/><polygon fill="#181818" points="107.25,94.1328,111.25,104.1328,115.25,94.1328,111.25,98.1328" style="stroke:#181818;stroke-width:1.0;"/><line style="stroke:#181818;stroke-width:1.0;" x1="70.25" x2="57.5" y1="170.2656" y2="170.2656"/><line style="stroke:#181818;stroke-width:1.0;" x1="57.5" x2="57.5" y1="170.2656" y2="192.2656"/><polygon fill="#181818" points="53.5,182.2656,57.5,192.2656,61.5,182.2656,57.5,186.2656" style="stroke:#181818;stroke-width:1.0;"/><line style="stroke:#181818;stroke-width:1.0;" x1="152.25" x2="165" y1="170.2656" y2="170.2656"/><line style="stroke:#181818;stroke-width:1.0;" x1="165" x2="165" y1="170.2656" y2="192.2656"/><polygon fill="#181818" points="161,182.2656,165,192.2656,169,182.2656,165,186.2656" style="stroke:#181818;stroke-width:1.0;"/><line style="stroke:#181818;stroke-width:1.0;" x1="57.5" x2="57.5" y1="226.3984" y2="244.3984"/><line style="stroke:#181818;stroke-width:1.0;" x1="57.5" x2="99.25" y1="244.3984" y2="244.3984"/><polygon fill="#181818" points="89.25,240.3984,99.25,244.3984,89.25,248.3984,93.25,244.3984" style="stroke:#181818;stroke-width:1.0;"/><line style="stroke:#181818;stroke-width:1.0;" x1="165" x2="165" y1="226.3984" y2="244.3984"/><line style="stroke:#181818;stroke-width:1.0;" x1="165" x2="123.25" y1="244.3984" y2="244.3984"/><polygon fill="#181818" points="133.25,240.3984,123.25,244.3984,133.25,248.3984,129.25,244.3984" style="stroke:#181818;stroke-width:1.0;"/><line style="stroke:#181818;stroke-width:1.0;" x1="111.25" x2="111.25" y1="138.2656" y2="158.2656"/><polygon fill="#181818" points="107.25,148.2656,111.25,158.2656,115.25,148.2656,111.25,152.2656" style="stroke:#181818;stroke-width:1.0;"/><line style="stroke:#181818;stroke-width:1.0;" x1="111.25" x2="111.25" y1="256.3984" y2="276.3984"/><polygon fill="#181818" points="107.25,266.3984,111.25,276.3984,115.25,266.3984,111.25,270.3984" style="stroke:#181818;stroke-width:1.0;"/><!--SRC=[BSex2iD034NHNgjuvNWBuoADtRa81DABM8u5myX8Wk3TvqEw2-T6iYVLnPxQHwfNjuT4OEBaaNH3-HRkt7Iz3CXTEiefCH1G9usZyVcVfOMWTFlHRRSNPdVp3_HLDugqumq0]--></g></svg>