<?xml version="1.0" encoding="us-ascii" standalone="no"?><svg xmlns="http://www.w3.org/2000/svg" xmlns:xlink="http://www.w3.org/1999/xlink" contentStyleType="text/css" height="308px" preserveAspectRatio="none" style="width:228px;height:308px;background:#FFFFFF;" version="1.1" viewBox="0 0 228 308" width="228px" zoomAndPan="magnify"><defs/><g><ellipse cx="116.5" cy="20" fill="#222222" rx="10" ry="10" style="stroke:#222222;stroke-width:1.0;"/><rect fill="#F1F1F1" height="33.9688" rx="12.5" ry="12.5" style="stroke:#181818;stroke-width:0.5;" width="53" x="90" y="50"/><text fill="#000000" font-family="sans-serif" font-size="12" lengthAdjust="spacing" textLength="33" x="100" y="71.1387">Login</text><rect fill="#F1F1F1" height="33.9688" rx="12.5" ry="12.5" style="stroke:#181818;stroke-width:0.5;" width="104" x="64.5" y="103.9688"/><text fill="#000000" font-family="sans-serif" font-size="12" lengthAdjust="spacing" textLength="84" x="74.5" y="125.1074">Process Data</text><polygon fill="#F1F1F1" points="85,157.9375,148,157.9375,160,169.9375,148,181.9375,85,181.9375,73,169.9375,85,157.9375" style="stroke:#181818;stroke-width:0.5;"/><text fill="#000000" font-family="sans-serif" font-size="11" lengthAdjust="spacing" textLength="63" x="85" y="173.7456">Data Valid?</text><text fill="#000000" font-family="sans-serif" font-size="11" lengthAdjust="spacing" textLength="20" x="53" y="167.3433">yes</text><text fill="#000000" font-family="sans-serif" font-size="11" lengthAdjust="spacing" textLength="14" x="160" y="167.3433">no</text><rect fill="#F1F1F1" height="33.9688" rx="12.5" ry="12.5" style="stroke:#181818;stroke-width:0.5;" width="98" x="11" y="191.9375"/><text fill="#000000" font-family="sans-serif" font-size="12" lengthAdjust="spacing" textLength="78" x="21" y="213.0762">Display Data</text><rect fill="#F1F1F1" height="33.9688" rx="12.5" ry="12.5" style="stroke:#181818;stroke-width:0.5;" width="88" x="129" y="191.9375"/><text fill="#000000" font-family="sans-serif" font-size="12" lengthAdjust="spacing" textLength="68" x="139" y="213.0762">Show Error</text><polygon fill="#F1F1F1" points="116.5,231.9063,128.5,243.9063,116.5,255.9063,104.5,243.9063,116.5,231.9063" style="stroke:#181818;stroke-width:0.5;"/><ellipse cx="116.5" cy="286.9063" fill="none" rx="11" ry="11" style="stroke:#222222;stroke-width:1.0;"/><ellipse cx="116.5" cy="286.9063" fill="#222222" rx="6" ry="6" style="stroke:#111111;stroke-width:1.0;"/><line style="stroke:#181818;stroke-width:1.0;" x1="116.5" x2="116.5" y1="30" y2="50"/><polygon fill="#181818" points="112.5,40,116.5,50,120.5,40,116.5,44" style="stroke:#181818;stroke-width:1.0;"/><line style="stroke:#181818;stroke-width:1.0;" x1="116.5" x2="116.5" y1="83.9688" y2="103.9688"/><polygon fill="#181818" points="112.5,93.9688,116.5,103.9688,120.5,93.9688,116.5,97.9688" style="stroke:#181818;stroke-width:1.0;"/><line style="stroke:#181818;stroke-width:1.0;" x1="73" x2="60" y1="169.9375" y2="169.9375"/><line style="stroke:#181818;stroke-width:1.0;" x1="60" x2="60" y1="169.9375" y2="191.9375"/><polygon fill="#181818" points="56,181.9375,60,191.9375,64,181.9375,60,185.9375" style="stroke:#181818;stroke-width:1.0;"/><line style="stroke:#181818;stroke-width:1.0;" x1="160" x2="173" y1="169.9375" y2="169.9375"/><line style="stroke:#181818;stroke-width:1.0;" x1="173" x2="173" y1="169.9375" y2="191.9375"/><polygon fill="#181818" points="169,181.9375,173,191.9375,177,181.9375,173,185.9375" style="stroke:#181818;stroke-width:1.0;"/><line style="stroke:#181818;stroke-width:1.0;" x1="60" x2="60" y1="225.9063" y2="243.9063"/><line style="stroke:#181818;stroke-width:1.0;" x1="60" x2="104.5" y1="243.9063" y2="243.9063"/><polygon fill="#181818" points="94.5,239.9063,104.5,243.9063,94.5,247.9063,98.5,243.9063" style="stroke:#181818;stroke-width:1.0;"/><line style="stroke:#181818;stroke-width:1.0;" x1="173" x2="173" y1="225.9063" y2="243.9063"/><line style="stroke:#181818;stroke-width:1.0;" x1="173" x2="128.5" y1="243.9063" y2="243.9063"/><polygon fill="#181818" points="138.5,239.9063,128.5,243.9063,138.5,247.9063,134.5,243.9063" style="stroke:#181818;stroke-width:1.0;"/><line style="stroke:#181818;stroke-width:1.0;" x1="116.5" x2="116.5" y1="137.9375" y2="157.9375"/><polygon fill="#181818" points="112.5,147.9375,116.5,157.9375,120.5,147.9375,116.5,151.9375" style="stroke:#181818;stroke-width:1.0;"/><line style="stroke:#181818;stroke-width:1.0;" x1="116.5" x2="116.5" y1="255.9063" y2="275.9063"/><polygon fill="#181818" points="112.5,265.9063,116.5,275.9063,120.5,265.9063,116.5,269.9063" style="stroke:#181818;stroke-width:1.0;"/><!--SRC=[BSex2iD034NHNgjuvNWBuoADtRa81DABM8u5myX8Wk3TvqEw2-T6iYVLnPxQHwfNjuT4OEBaaNH3-HRkt7Iz3CXTEiefCH1G9usZyVcVfOMWTFlHRRSNPdVp3_HLDugqumq0]--></g></svg>