<?xml version="1.0" encoding="us-ascii" standalone="no"?><svg xmlns="http://www.w3.org/2000/svg" xmlns:xlink="http://www.w3.org/1999/xlink" contentStyleType="text/css" height="748px" preserveAspectRatio="none" style="width:772px;height:748px;background:#FFFFFF;" version="1.1" viewBox="0 0 772 748" width="772px" zoomAndPan="magnify"><defs/><g><ellipse cx="287" cy="20" fill="#222222" rx="10" ry="10" style="stroke:#222222;stroke-width:1.0;"/><polygon fill="#F1F1F1" points="173.5,50,400.5,50,412.5,62,400.5,74,173.5,74,161.5,62,173.5,50" style="stroke:#181818;stroke-width:0.5;"/><text fill="#000000" font-family="sans-serif" font-size="11" lengthAdjust="spacing" textLength="227" x="173.5" y="65.8081">readme.enabled is set to false - default</text><text fill="#000000" font-family="sans-serif" font-size="11" lengthAdjust="spacing" textLength="21" x="140.5" y="59.4058">Yes</text><text fill="#000000" font-family="sans-serif" font-size="11" lengthAdjust="spacing" textLength="15" x="412.5" y="59.4058">No</text><rect fill="#F1F1F1" height="33.9688" rx="12.5" ry="12.5" style="stroke:#181818;stroke-width:0.5;" width="191" x="11" y="84"/><text fill="#000000" font-family="sans-serif" font-size="12" lengthAdjust="spacing" textLength="171" x="21" y="105.1387">Do not generate a README</text><ellipse cx="106.5" cy="163.9688" fill="none" rx="11" ry="11" style="stroke:#222222;stroke-width:1.0;"/><ellipse cx="106.5" cy="163.9688" fill="#222222" rx="6" ry="6" style="stroke:#111111;stroke-width:1.0;"/><polygon fill="#F1F1F1" points="396.5,84,538.5,84,550.5,96,538.5,108,396.5,108,384.5,96,396.5,84" style="stroke:#181818;stroke-width:0.5;"/><text fill="#000000" font-family="sans-serif" font-size="11" lengthAdjust="spacing" textLength="142" x="396.5" y="99.8081">section.before is defined</text><text fill="#000000" font-family="sans-serif" font-size="11" lengthAdjust="spacing" textLength="21" x="363.5" y="93.4058">Yes</text><text fill="#000000" font-family="sans-serif" font-size="11" lengthAdjust="spacing" textLength="15" x="550.5" y="93.4058">No</text><rect fill="#F1F1F1" height="33.9688" rx="12.5" ry="12.5" style="stroke:#181818;stroke-width:0.5;" width="204" x="232" y="118"/><text fill="#000000" font-family="sans-serif" font-size="12" lengthAdjust="spacing" textLength="184" x="242" y="139.1387">Insert value of section.before</text><rect fill="#F1F1F1" height="33.9688" rx="12.5" ry="12.5" style="stroke:#181818;stroke-width:0.5;" width="270" x="466" y="166.4023"/><text fill="#000000" font-family="sans-serif" font-size="12" lengthAdjust="spacing" textLength="250" x="476" y="187.541">Insert content of {sectionId}.before.md</text><polygon fill="#F1F1F1" points="518,118,684,118,696,130,684,142,518,142,506,130,518,118" style="stroke:#181818;stroke-width:0.5;"/><text fill="#000000" font-family="sans-serif" font-size="11" lengthAdjust="spacing" textLength="21" x="605" y="152.2104">Yes</text><text fill="#000000" font-family="sans-serif" font-size="11" lengthAdjust="spacing" textLength="166" x="518" y="133.8081">{sectionId}.before.md exists</text><text fill="#000000" font-family="sans-serif" font-size="11" lengthAdjust="spacing" textLength="15" x="696" y="127.4058">No</text><polygon fill="#F1F1F1" points="601,220.3711,613,232.3711,601,244.3711,589,232.3711,601,220.3711" style="stroke:#181818;stroke-width:0.5;"/><polygon fill="#F1F1F1" points="467.5,250.3711,479.5,262.3711,467.5,274.3711,455.5,262.3711,467.5,250.3711" style="stroke:#181818;stroke-width:0.5;"/><polygon fill="#F1F1F1" points="394,294.3711,541,294.3711,553,306.3711,541,318.3711,394,318.3711,382,306.3711,394,294.3711" style="stroke:#181818;stroke-width:0.5;"/><text fill="#000000" font-family="sans-serif" font-size="11" lengthAdjust="spacing" textLength="147" x="394" y="310.1792">section.content is defined</text><text fill="#000000" font-family="sans-serif" font-size="11" lengthAdjust="spacing" textLength="21" x="361" y="303.7769">Yes</text><text fill="#000000" font-family="sans-serif" font-size="11" lengthAdjust="spacing" textLength="15" x="553" y="303.7769">No</text><rect fill="#F1F1F1" height="33.9688" rx="12.5" ry="12.5" style="stroke:#181818;stroke-width:0.5;" width="212" x="237.25" y="328.3711"/><text fill="#000000" font-family="sans-serif" font-size="12" lengthAdjust="spacing" textLength="192" x="247.25" y="349.5098">Insert value of section.content</text><rect fill="#F1F1F1" height="33.9688" rx="12.5" ry="12.5" style="stroke:#181818;stroke-width:0.5;" width="225" x="479.25" y="376.7734"/><text fill="#000000" font-family="sans-serif" font-size="12" lengthAdjust="spacing" textLength="205" x="489.25" y="397.9121">Insert content of {sectionId}.md</text><polygon fill="#F1F1F1" points="529.25,328.3711,654.25,328.3711,666.25,340.3711,654.25,352.3711,529.25,352.3711,517.25,340.3711,529.25,328.3711" style="stroke:#181818;stroke-width:0.5;"/><text fill="#000000" font-family="sans-serif" font-size="11" lengthAdjust="spacing" textLength="21" x="595.75" y="362.5815">Yes</text><text fill="#000000" font-family="sans-serif" font-size="11" lengthAdjust="spacing" textLength="125" x="529.25" y="344.1792">{sectionId}.md exists</text><text fill="#000000" font-family="sans-serif" font-size="11" lengthAdjust="spacing" textLength="15" x="666.25" y="337.7769">No</text><polygon fill="#F1F1F1" points="591.75,430.7422,603.75,442.7422,591.75,454.7422,579.75,442.7422,591.75,430.7422" style="stroke:#181818;stroke-width:0.5;"/><polygon fill="#F1F1F1" points="467.5,460.7422,479.5,472.7422,467.5,484.7422,455.5,472.7422,467.5,460.7422" style="stroke:#181818;stroke-width:0.5;"/><polygon fill="#F1F1F1" points="401.5,504.7422,533.5,504.7422,545.5,516.7422,533.5,528.7422,401.5,528.7422,389.5,516.7422,401.5,504.7422" style="stroke:#181818;stroke-width:0.5;"/><text fill="#000000" font-family="sans-serif" font-size="11" lengthAdjust="spacing" textLength="132" x="401.5" y="520.5503">section.after is defined</text><text fill="#000000" font-family="sans-serif" font-size="11" lengthAdjust="spacing" textLength="21" x="368.5" y="514.1479">Yes</text><text fill="#000000" font-family="sans-serif" font-size="11" lengthAdjust="spacing" textLength="15" x="545.5" y="514.1479">No</text><rect fill="#F1F1F1" height="33.9688" rx="12.5" ry="12.5" style="stroke:#181818;stroke-width:0.5;" width="193" x="243" y="538.7422"/><text fill="#000000" font-family="sans-serif" font-size="12" lengthAdjust="spacing" textLength="173" x="253" y="559.8809">Insert value of section.after</text><rect fill="#F1F1F1" height="33.9688" rx="12.5" ry="12.5" style="stroke:#181818;stroke-width:0.5;" width="259" x="466" y="587.1445"/><text fill="#000000" font-family="sans-serif" font-size="12" lengthAdjust="spacing" textLength="239" x="476" y="608.2832">Insert content of {sectionId}.after.md</text><polygon fill="#F1F1F1" points="517.5,538.7422,673.5,538.7422,685.5,550.7422,673.5,562.7422,517.5,562.7422,505.5,550.7422,517.5,538.7422" style="stroke:#181818;stroke-width:0.5;"/><text fill="#000000" font-family="sans-serif" font-size="11" lengthAdjust="spacing" textLength="21" x="599.5" y="572.9526">Yes</text><text fill="#000000" font-family="sans-serif" font-size="11" lengthAdjust="spacing" textLength="156" x="517.5" y="554.5503">{sectionId}.after.md exists</text><polygon fill="#F1F1F1" points="595.5,641.1133,607.5,653.1133,595.5,665.1133,583.5,653.1133,595.5,641.1133" style="stroke:#181818;stroke-width:0.5;"/><polygon fill="#F1F1F1" points="467.5,671.1133,479.5,683.1133,467.5,695.1133,455.5,683.1133,467.5,671.1133" style="stroke:#181818;stroke-width:0.5;"/><ellipse cx="287" cy="726.1133" fill="none" rx="11" ry="11" style="stroke:#222222;stroke-width:1.0;"/><ellipse cx="287" cy="726.1133" fill="#222222" rx="6" ry="6" style="stroke:#111111;stroke-width:1.0;"/><line style="stroke:#181818;stroke-width:1.0;" x1="106.5" x2="106.5" y1="117.9688" y2="152.9688"/><polygon fill="#181818" points="102.5,142.9688,106.5,152.9688,110.5,142.9688,106.5,146.9688" style="stroke:#181818;stroke-width:1.0;"/><line style="stroke:#181818;stroke-width:1.0;" x1="601" x2="601" y1="142" y2="166.4023"/><polygon fill="#181818" points="597,156.4023,601,166.4023,605,156.4023,601,160.4023" style="stroke:#181818;stroke-width:1.0;"/><line style="stroke:#181818;stroke-width:1.0;" x1="696" x2="746" y1="130" y2="130"/><polygon fill="#181818" points="742,173.3867,746,183.3867,750,173.3867,746,177.3867" style="stroke:#181818;stroke-width:1.0;"/><line style="stroke:#181818;stroke-width:1.0;" x1="746" x2="746" y1="130" y2="232.3711"/><line style="stroke:#181818;stroke-width:1.0;" x1="746" x2="613" y1="232.3711" y2="232.3711"/><polygon fill="#181818" points="623,228.3711,613,232.3711,623,236.3711,619,232.3711" style="stroke:#181818;stroke-width:1.0;"/><line style="stroke:#181818;stroke-width:1.0;" x1="601" x2="601" y1="200.3711" y2="220.3711"/><polygon fill="#181818" points="597,210.3711,601,220.3711,605,210.3711,601,214.3711" style="stroke:#181818;stroke-width:1.0;"/><line style="stroke:#181818;stroke-width:1.0;" x1="384.5" x2="334" y1="96" y2="96"/><line style="stroke:#181818;stroke-width:1.0;" x1="334" x2="334" y1="96" y2="118"/><polygon fill="#181818" points="330,108,334,118,338,108,334,112" style="stroke:#181818;stroke-width:1.0;"/><line style="stroke:#181818;stroke-width:1.0;" x1="550.5" x2="601" y1="96" y2="96"/><line style="stroke:#181818;stroke-width:1.0;" x1="601" x2="601" y1="96" y2="118"/><polygon fill="#181818" points="597,108,601,118,605,108,601,112" style="stroke:#181818;stroke-width:1.0;"/><line style="stroke:#181818;stroke-width:1.0;" x1="334" x2="334" y1="151.9688" y2="262.3711"/><line style="stroke:#181818;stroke-width:1.0;" x1="334" x2="455.5" y1="262.3711" y2="262.3711"/><polygon fill="#181818" points="445.5,258.3711,455.5,262.3711,445.5,266.3711,449.5,262.3711" style="stroke:#181818;stroke-width:1.0;"/><line style="stroke:#181818;stroke-width:1.0;" x1="601" x2="601" y1="244.3711" y2="262.3711"/><line style="stroke:#181818;stroke-width:1.0;" x1="601" x2="479.5" y1="262.3711" y2="262.3711"/><polygon fill="#181818" points="489.5,258.3711,479.5,262.3711,489.5,266.3711,485.5,262.3711" style="stroke:#181818;stroke-width:1.0;"/><line style="stroke:#181818;stroke-width:1.0;" x1="591.75" x2="591.75" y1="352.3711" y2="376.7734"/><polygon fill="#181818" points="587.75,366.7734,591.75,376.7734,595.75,366.7734,591.75,370.7734" style="stroke:#181818;stroke-width:1.0;"/><line style="stroke:#181818;stroke-width:1.0;" x1="666.25" x2="714.25" y1="340.3711" y2="340.3711"/><polygon fill="#181818" points="710.25,383.7578,714.25,393.7578,718.25,383.7578,714.25,387.7578" style="stroke:#181818;stroke-width:1.0;"/><line style="stroke:#181818;stroke-width:1.0;" x1="714.25" x2="714.25" y1="340.3711" y2="442.7422"/><line style="stroke:#181818;stroke-width:1.0;" x1="714.25" x2="603.75" y1="442.7422" y2="442.7422"/><polygon fill="#181818" points="613.75,438.7422,603.75,442.7422,613.75,446.7422,609.75,442.7422" style="stroke:#181818;stroke-width:1.0;"/><line style="stroke:#181818;stroke-width:1.0;" x1="591.75" x2="591.75" y1="410.7422" y2="430.7422"/><polygon fill="#181818" points="587.75,420.7422,591.75,430.7422,595.75,420.7422,591.75,424.7422" style="stroke:#181818;stroke-width:1.0;"/><line style="stroke:#181818;stroke-width:1.0;" x1="382" x2="343.25" y1="306.3711" y2="306.3711"/><line style="stroke:#181818;stroke-width:1.0;" x1="343.25" x2="343.25" y1="306.3711" y2="328.3711"/><polygon fill="#181818" points="339.25,318.3711,343.25,328.3711,347.25,318.3711,343.25,322.3711" style="stroke:#181818;stroke-width:1.0;"/><line style="stroke:#181818;stroke-width:1.0;" x1="553" x2="591.75" y1="306.3711" y2="306.3711"/><line style="stroke:#181818;stroke-width:1.0;" x1="591.75" x2="591.75" y1="306.3711" y2="328.3711"/><polygon fill="#181818" points="587.75,318.3711,591.75,328.3711,595.75,318.3711,591.75,322.3711" style="stroke:#181818;stroke-width:1.0;"/><line style="stroke:#181818;stroke-width:1.0;" x1="343.25" x2="343.25" y1="362.3398" y2="472.7422"/><line style="stroke:#181818;stroke-width:1.0;" x1="343.25" x2="455.5" y1="472.7422" y2="472.7422"/><polygon fill="#181818" points="445.5,468.7422,455.5,472.7422,445.5,476.7422,449.5,472.7422" style="stroke:#181818;stroke-width:1.0;"/><line style="stroke:#181818;stroke-width:1.0;" x1="591.75" x2="591.75" y1="454.7422" y2="472.7422"/><line style="stroke:#181818;stroke-width:1.0;" x1="591.75" x2="479.5" y1="472.7422" y2="472.7422"/><polygon fill="#181818" points="489.5,468.7422,479.5,472.7422,489.5,476.7422,485.5,472.7422" style="stroke:#181818;stroke-width:1.0;"/><line style="stroke:#181818;stroke-width:1.0;" x1="467.5" x2="467.5" y1="274.3711" y2="294.3711"/><polygon fill="#181818" points="463.5,284.3711,467.5,294.3711,471.5,284.3711,467.5,288.3711" style="stroke:#181818;stroke-width:1.0;"/><line style="stroke:#181818;stroke-width:1.0;" x1="595.5" x2="595.5" y1="562.7422" y2="587.1445"/><polygon fill="#181818" points="591.5,577.1445,595.5,587.1445,599.5,577.1445,595.5,581.1445" style="stroke:#181818;stroke-width:1.0;"/><line style="stroke:#181818;stroke-width:1.0;" x1="685.5" x2="735" y1="550.7422" y2="550.7422"/><polygon fill="#181818" points="731,594.1289,735,604.1289,739,594.1289,735,598.1289" style="stroke:#181818;stroke-width:1.0;"/><line style="stroke:#181818;stroke-width:1.0;" x1="735" x2="735" y1="550.7422" y2="653.1133"/><line style="stroke:#181818;stroke-width:1.0;" x1="735" x2="607.5" y1="653.1133" y2="653.1133"/><polygon fill="#181818" points="617.5,649.1133,607.5,653.1133,617.5,657.1133,613.5,653.1133" style="stroke:#181818;stroke-width:1.0;"/><line style="stroke:#181818;stroke-width:1.0;" x1="595.5" x2="595.5" y1="621.1133" y2="641.1133"/><polygon fill="#181818" points="591.5,631.1133,595.5,641.1133,599.5,631.1133,595.5,635.1133" style="stroke:#181818;stroke-width:1.0;"/><line style="stroke:#181818;stroke-width:1.0;" x1="389.5" x2="339.5" y1="516.7422" y2="516.7422"/><line style="stroke:#181818;stroke-width:1.0;" x1="339.5" x2="339.5" y1="516.7422" y2="538.7422"/><polygon fill="#181818" points="335.5,528.7422,339.5,538.7422,343.5,528.7422,339.5,532.7422" style="stroke:#181818;stroke-width:1.0;"/><line style="stroke:#181818;stroke-width:1.0;" x1="545.5" x2="595.5" y1="516.7422" y2="516.7422"/><line style="stroke:#181818;stroke-width:1.0;" x1="595.5" x2="595.5" y1="516.7422" y2="538.7422"/><polygon fill="#181818" points="591.5,528.7422,595.5,538.7422,599.5,528.7422,595.5,532.7422" style="stroke:#181818;stroke-width:1.0;"/><line style="stroke:#181818;stroke-width:1.0;" x1="339.5" x2="339.5" y1="572.7109" y2="683.1133"/><line style="stroke:#181818;stroke-width:1.0;" x1="339.5" x2="455.5" y1="683.1133" y2="683.1133"/><polygon fill="#181818" points="445.5,679.1133,455.5,683.1133,445.5,687.1133,449.5,683.1133" style="stroke:#181818;stroke-width:1.0;"/><line style="stroke:#181818;stroke-width:1.0;" x1="595.5" x2="595.5" y1="665.1133" y2="683.1133"/><line style="stroke:#181818;stroke-width:1.0;" x1="595.5" x2="479.5" y1="683.1133" y2="683.1133"/><polygon fill="#181818" points="489.5,679.1133,479.5,683.1133,489.5,687.1133,485.5,683.1133" style="stroke:#181818;stroke-width:1.0;"/><line style="stroke:#181818;stroke-width:1.0;" x1="467.5" x2="467.5" y1="484.7422" y2="504.7422"/><polygon fill="#181818" points="463.5,494.7422,467.5,504.7422,471.5,494.7422,467.5,498.7422" style="stroke:#181818;stroke-width:1.0;"/><line style="stroke:#181818;stroke-width:1.0;" x1="161.5" x2="106.5" y1="62" y2="62"/><line style="stroke:#181818;stroke-width:1.0;" x1="106.5" x2="106.5" y1="62" y2="84"/><polygon fill="#181818" points="102.5,74,106.5,84,110.5,74,106.5,78" style="stroke:#181818;stroke-width:1.0;"/><line style="stroke:#181818;stroke-width:1.0;" x1="412.5" x2="467.5" y1="62" y2="62"/><line style="stroke:#181818;stroke-width:1.0;" x1="467.5" x2="467.5" y1="62" y2="84"/><polygon fill="#181818" points="463.5,74,467.5,84,471.5,74,467.5,78" style="stroke:#181818;stroke-width:1.0;"/><line style="stroke:#181818;stroke-width:1.0;" x1="467.5" x2="467.5" y1="695.1133" y2="700.1133"/><line style="stroke:#181818;stroke-width:1.0;" x1="467.5" x2="287" y1="700.1133" y2="700.1133"/><line style="stroke:#181818;stroke-width:1.0;" x1="287" x2="287" y1="700.1133" y2="715.1133"/><polygon fill="#181818" points="283,705.1133,287,715.1133,291,705.1133,287,709.1133" style="stroke:#181818;stroke-width:1.0;"/><line style="stroke:#181818;stroke-width:1.0;" x1="287" x2="287" y1="30" y2="50"/><polygon fill="#181818" points="283,40,287,50,291,40,287,44" style="stroke:#181818;stroke-width:1.0;"/><!--SRC=[fPAnQiCm48PtFSMDzb0_G3qLaY53EdJhg4I_6e5pLtIN4WXvzrZ69gG911mj1zBztyy7KlFPd4kHgWmVzcZ0VjCXK59I69bGz9s2tYWW-aDdDTaEJDKtj7RKd_U548lH3nZP6yZJr_9ZiLws_REQ_3eKGFKfjUjlIfTYQqcusI1AHkdguOaHxk4hLcIZFzyTG1BfDbeghlGIAFZJkBGAvt6lsGV2CQdfNSErOojiO2ij3mdji7zR1mufkcd-qvk0S_p6x7F15yncAFbeoBE4XkHpdM7j5Qa9q3wI6SVmAoy0]--></g></svg>