<?xml version="1.0" encoding="us-ascii" standalone="no"?><svg xmlns="http://www.w3.org/2000/svg" xmlns:xlink="http://www.w3.org/1999/xlink" contentStyleType="text/css" height="285px" preserveAspectRatio="none" style="width:181px;height:285px;background:#FFFFFF;" version="1.1" viewBox="0 0 181 285" width="181px" zoomAndPan="magnify"><defs/><g><!--class Car--><g id="elem_Car"><rect codeLine="1" fill="#F1F1F1" height="130.4414" id="Car" rx="2.5" ry="2.5" style="stroke:#181818;stroke-width:0.5;" width="117" x="32" y="7"/><ellipse cx="74.45" cy="23" fill="#ADD1B2" rx="11" ry="11" style="stroke:#181818;stroke-width:1.0;"/><path d="M76.9231,29.1431 Q76.3421,29.4419 75.7029,29.5913 Q75.0638,29.7407 74.3582,29.7407 Q71.8514,29.7407 70.5315,28.0889 Q69.2117,26.437 69.2117,23.3159 Q69.2117,20.1865 70.5315,18.5347 Q71.8514,16.8828 74.3582,16.8828 Q75.0638,16.8828 75.7112,17.0322 Q76.3587,17.1816 76.9231,17.4805 L76.9231,20.2031 Q76.2923,19.6221 75.6988,19.3523 Q75.1053,19.0825 74.4744,19.0825 Q73.1297,19.0825 72.4449,20.1492 Q71.7601,21.2158 71.7601,23.3159 Q71.7601,25.4077 72.4449,26.4744 Q73.1297,27.541 74.4744,27.541 Q75.1053,27.541 75.6988,27.2712 Q76.2923,27.0015 76.9231,26.4204 Z " fill="#000000"/><text fill="#000000" font-family="sans-serif" font-size="14" lengthAdjust="spacing" textLength="24" x="94.55" y="28.291">Car</text><line style="stroke:#181818;stroke-width:0.5;" x1="33" x2="148" y1="39" y2="39"/><ellipse cx="43" cy="52.7441" fill="none" rx="3" ry="3" style="stroke:#038048;stroke-width:1.0;"/><text fill="#000000" font-family="sans-serif" font-size="14" lengthAdjust="spacing" textLength="85" x="52" y="56.5352">make: string</text><ellipse cx="43" cy="69.2324" fill="none" rx="3" ry="3" style="stroke:#038048;stroke-width:1.0;"/><text fill="#000000" font-family="sans-serif" font-size="14" lengthAdjust="spacing" textLength="91" x="52" y="73.0234">model: string</text><ellipse cx="43" cy="85.7207" fill="none" rx="3" ry="3" style="stroke:#038048;stroke-width:1.0;"/><text fill="#000000" font-family="sans-serif" font-size="14" lengthAdjust="spacing" textLength="55" x="52" y="89.5117">year: int</text><line style="stroke:#181818;stroke-width:0.5;" x1="33" x2="148" y1="96.4648" y2="96.4648"/><ellipse cx="43" cy="110.209" fill="#84BE84" rx="3" ry="3" style="stroke:#038048;stroke-width:1.0;"/><text fill="#000000" font-family="sans-serif" font-size="14" lengthAdjust="spacing" textLength="41" x="52" y="114">start()</text><ellipse cx="43" cy="126.6973" fill="#84BE84" rx="3" ry="3" style="stroke:#038048;stroke-width:1.0;"/><text fill="#000000" font-family="sans-serif" font-size="14" lengthAdjust="spacing" textLength="40" x="52" y="130.4883">stop()</text></g><!--class Engine--><g id="elem_Engine"><rect codeLine="8" fill="#F1F1F1" height="80.9766" id="Engine" rx="2.5" ry="2.5" style="stroke:#181818;stroke-width:0.5;" width="167" x="7" y="197.44"/><ellipse cx="62.75" cy="213.44" fill="#ADD1B2" rx="11" ry="11" style="stroke:#181818;stroke-width:1.0;"/><path d="M65.2231,219.5831 Q64.6421,219.8819 64.0029,220.0313 Q63.3638,220.1807 62.6582,220.1807 Q60.1514,220.1807 58.8315,218.5289 Q57.5117,216.877 57.5117,213.7559 Q57.5117,210.6265 58.8315,208.9747 Q60.1514,207.3228 62.6582,207.3228 Q63.3638,207.3228 64.0112,207.4722 Q64.6587,207.6216 65.2231,207.9205 L65.2231,210.6431 Q64.5923,210.0621 63.9988,209.7923 Q63.4053,209.5225 62.7744,209.5225 Q61.4297,209.5225 60.7449,210.5892 Q60.0601,211.6558 60.0601,213.7559 Q60.0601,215.8477 60.7449,216.9144 Q61.4297,217.981 62.7744,217.981 Q63.4053,217.981 63.9988,217.7112 Q64.5923,217.4415 65.2231,216.8604 Z " fill="#000000"/><text fill="#000000" font-family="sans-serif" font-size="14" lengthAdjust="spacing" textLength="47" x="83.25" y="218.731">Engine</text><line style="stroke:#181818;stroke-width:0.5;" x1="8" x2="173" y1="229.44" y2="229.44"/><ellipse cx="18" cy="243.1841" fill="none" rx="3" ry="3" style="stroke:#038048;stroke-width:1.0;"/><text fill="#000000" font-family="sans-serif" font-size="14" lengthAdjust="spacing" textLength="108" x="27" y="246.9752">horsepower: int</text><ellipse cx="18" cy="259.6724" fill="none" rx="3" ry="3" style="stroke:#038048;stroke-width:1.0;"/><text fill="#000000" font-family="sans-serif" font-size="14" lengthAdjust="spacing" textLength="141" x="27" y="263.4634">manufacturer: string</text><line style="stroke:#181818;stroke-width:0.5;" x1="8" x2="173" y1="270.4166" y2="270.4166"/></g><!--link Car to Engine--><g id="link_Car_Engine"><path codeLine="12" d="M90.5,137.92 C90.5,155.75 90.5,174.72 90.5,191.23 " fill="none" id="Car-to-Engine" style="stroke:#181818;stroke-width:1.0;"/><polygon fill="#181818" points="90.5,196.2,94.5,187.2,90.5,191.2,86.5,187.2,90.5,196.2" style="stroke:#181818;stroke-width:1.0;"/></g><!--SRC=[Iyv9B2vMS4uiKgZcKb3GLiXDp4wrKYWkAShCIuS8vAUavg28LAOc5bafPEQLW7d59Ob59HgQK7P-0P1PovKCDjKrBpqpBnLgS4P-KN5gGNvvAfBUtCIyqhJ4v9BI8f0er8fQBf1hT7NjeFe1]--></g></svg>