<?xml version="1.0" encoding="us-ascii" standalone="no"?><svg xmlns="http://www.w3.org/2000/svg" xmlns:xlink="http://www.w3.org/1999/xlink" contentStyleType="text/css" height="283px" preserveAspectRatio="none" style="width:180px;height:283px;background:#FFFFFF;" version="1.1" viewBox="0 0 180 283" width="180px" zoomAndPan="magnify"><defs/><g><!--class Car--><g id="elem_Car"><rect codeLine="1" fill="#F1F1F1" height="129.4844" id="Car" rx="2.5" ry="2.5" style="stroke:#181818;stroke-width:0.5;" width="117" x="31.5" y="7"/><ellipse cx="74.4" cy="23" fill="#ADD1B2" rx="11" ry="11" style="stroke:#181818;stroke-width:1.0;"/><path d="M77.3688,28.6406 Q76.7906,28.9375 76.15,29.0781 Q75.5094,29.2344 74.8063,29.2344 Q72.3063,29.2344 70.9781,27.5938 Q69.6656,25.9375 69.6656,22.8125 Q69.6656,19.6875 70.9781,18.0313 Q72.3063,16.375 74.8063,16.375 Q75.5094,16.375 76.15,16.5313 Q76.8063,16.6875 77.3688,16.9844 L77.3688,19.7031 Q76.7438,19.125 76.15,18.8594 Q75.5563,18.5781 74.9313,18.5781 Q73.5875,18.5781 72.9,19.6563 Q72.2125,20.7188 72.2125,22.8125 Q72.2125,24.9063 72.9,25.9844 Q73.5875,27.0469 74.9313,27.0469 Q75.5563,27.0469 76.15,26.7813 Q76.7438,26.5 77.3688,25.9219 L77.3688,28.6406 Z " fill="#000000"/><text fill="#000000" font-family="sans-serif" font-size="14" lengthAdjust="spacing" textLength="23" x="94.6" y="27.8467">Car</text><line style="stroke:#181818;stroke-width:0.5;" x1="32.5" x2="147.5" y1="39" y2="39"/><ellipse cx="42.5" cy="52.6484" fill="none" rx="3" ry="3" style="stroke:#038048;stroke-width:1.0;"/><text fill="#000000" font-family="sans-serif" font-size="14" lengthAdjust="spacing" textLength="86" x="51.5" y="55.9951">make: string</text><ellipse cx="42.5" cy="68.9453" fill="none" rx="3" ry="3" style="stroke:#038048;stroke-width:1.0;"/><text fill="#000000" font-family="sans-serif" font-size="14" lengthAdjust="spacing" textLength="91" x="51.5" y="72.292">model: string</text><ellipse cx="42.5" cy="85.2422" fill="none" rx="3" ry="3" style="stroke:#038048;stroke-width:1.0;"/><text fill="#000000" font-family="sans-serif" font-size="14" lengthAdjust="spacing" textLength="55" x="51.5" y="88.5889">year: int</text><line style="stroke:#181818;stroke-width:0.5;" x1="32.5" x2="147.5" y1="95.8906" y2="95.8906"/><ellipse cx="42.5" cy="109.5391" fill="#84BE84" rx="3" ry="3" style="stroke:#038048;stroke-width:1.0;"/><text fill="#000000" font-family="sans-serif" font-size="14" lengthAdjust="spacing" textLength="41" x="51.5" y="112.8857">start()</text><ellipse cx="42.5" cy="125.8359" fill="#84BE84" rx="3" ry="3" style="stroke:#038048;stroke-width:1.0;"/><text fill="#000000" font-family="sans-serif" font-size="14" lengthAdjust="spacing" textLength="41" x="51.5" y="129.1826">stop()</text></g><!--class Engine--><g id="elem_Engine"><rect codeLine="8" fill="#F1F1F1" height="80.5938" id="Engine" rx="2.5" ry="2.5" style="stroke:#181818;stroke-width:0.5;" width="166" x="7" y="196"/><ellipse cx="61.75" cy="212" fill="#ADD1B2" rx="11" ry="11" style="stroke:#181818;stroke-width:1.0;"/><path d="M64.7188,217.6406 Q64.1406,217.9375 63.5,218.0781 Q62.8594,218.2344 62.1563,218.2344 Q59.6563,218.2344 58.3281,216.5938 Q57.0156,214.9375 57.0156,211.8125 Q57.0156,208.6875 58.3281,207.0313 Q59.6563,205.375 62.1563,205.375 Q62.8594,205.375 63.5,205.5313 Q64.1563,205.6875 64.7188,205.9844 L64.7188,208.7031 Q64.0938,208.125 63.5,207.8594 Q62.9063,207.5781 62.2813,207.5781 Q60.9375,207.5781 60.25,208.6563 Q59.5625,209.7188 59.5625,211.8125 Q59.5625,213.9063 60.25,214.9844 Q60.9375,216.0469 62.2813,216.0469 Q62.9063,216.0469 63.5,215.7813 Q64.0938,215.5 64.7188,214.9219 L64.7188,217.6406 Z " fill="#000000"/><text fill="#000000" font-family="sans-serif" font-size="14" lengthAdjust="spacing" textLength="48" x="82.25" y="216.8467">Engine</text><line style="stroke:#181818;stroke-width:0.5;" x1="8" x2="172" y1="228" y2="228"/><ellipse cx="18" cy="241.6484" fill="none" rx="3" ry="3" style="stroke:#038048;stroke-width:1.0;"/><text fill="#000000" font-family="sans-serif" font-size="14" lengthAdjust="spacing" textLength="109" x="27" y="244.9951">horsepower: int</text><ellipse cx="18" cy="257.9453" fill="none" rx="3" ry="3" style="stroke:#038048;stroke-width:1.0;"/><text fill="#000000" font-family="sans-serif" font-size="14" lengthAdjust="spacing" textLength="140" x="27" y="261.292">manufacturer: string</text><line style="stroke:#181818;stroke-width:0.5;" x1="8" x2="172" y1="268.5938" y2="268.5938"/></g><!--link Car to Engine--><g id="link_Car_Engine"><path codeLine="12" d="M90,136.45 C90,154.56 90,173.88 90,190.6 " fill="none" id="Car-to-Engine" style="stroke:#181818;stroke-width:1.0;"/><polygon fill="#181818" points="90,195.7,94,186.7,90,190.7,86,186.7,90,195.7" style="stroke:#181818;stroke-width:1.0;"/></g><!--SRC=[Iyv9B2vMS4uiKgZcKb3GLiXDp4wrKYWkAShCIuS8vAUavg28LAOc5bafPEQLW7d59Ob59HgQK7P-0P1PovKCDjKrBpqpBnLgS4P-KN5gGNvvAfBUtCIyqhJ4v9BI8f0er8fQBf1hT7NjeFe1]--></g></svg>