<?xml version="1.0" encoding="us-ascii" standalone="no"?><svg xmlns="http://www.w3.org/2000/svg" xmlns:xlink="http://www.w3.org/1999/xlink" contentStyleType="text/css" height="183px" preserveAspectRatio="none" style="width:347px;height:183px;background:#FFFFFF;" version="1.1" viewBox="0 0 347 183" width="347px" zoomAndPan="magnify"><defs/><g><!--entity User--><g id="elem_User"><ellipse cx="175.04" cy="14" fill="#F1F1F1" rx="8" ry="8" style="stroke:#181818;stroke-width:0.5;"/><path d="M175.04,22 L175.04,49 M162.04,30 L188.04,30 M175.04,49 L162.04,64 M175.04,49 L188.04,64 " fill="none" style="stroke:#181818;stroke-width:0.5;"/><text fill="#000000" font-family="sans-serif" font-size="14" lengthAdjust="spacing" textLength="31" x="159.54" y="79.0352">User</text></g><g id="elem_View Dashboard"><ellipse cx="83.0365" cy="159.7873" fill="#F1F1F1" rx="77.0365" ry="17.8073" style="stroke:#181818;stroke-width:0.5;"/><text fill="#000000" font-family="sans-serif" font-size="14" lengthAdjust="spacing" textLength="111" x="27.5365" y="163.0783">View Dashboard</text></g><g id="elem_Manage Profile"><ellipse cx="268.0433" cy="159.7887" fill="#F1F1F1" rx="73.3433" ry="17.0687" style="stroke:#181818;stroke-width:0.5;"/><text fill="#000000" font-family="sans-serif" font-size="14" lengthAdjust="spacing" textLength="102" x="216.9256" y="163.1122">Manage Profile</text></g><!--link User to View Dashboard--><g id="link_User_View Dashboard"><path d="M159.22,64.35 C142.79,84.72 117.16,116.49 100.24,137.47 " fill="none" id="User-to-View Dashboard" style="stroke:#181818;stroke-width:1.0;"/><polygon fill="#181818" points="96.55,141.04,105.3099,136.5384,99.6857,137.1455,99.0786,131.5213,96.55,141.04" style="stroke:#181818;stroke-width:1.0;"/></g><!--link User to Manage Profile--><g id="link_User_Manage Profile"><path d="M191.02,64.35 C207.83,84.95 234.14,117.23 251.24,138.2 " fill="none" id="User-to-Manage Profile" style="stroke:#181818;stroke-width:1.0;"/><polygon fill="#181818" points="254.96,141.75,252.372,132.2473,251.8,137.8751,246.1722,137.3032,254.96,141.75" style="stroke:#181818;stroke-width:1.0;"/></g><!--SRC=[IqmkoIzI22rEBU824GgwkdOA6c6PgUKABed56KdvYKKfcaWolebvYUcf2W55-McPEQcQ0000]--></g></svg>