<?xml version="1.0" encoding="us-ascii" standalone="no"?><svg xmlns="http://www.w3.org/2000/svg" xmlns:xlink="http://www.w3.org/1999/xlink" contentStyleType="text/css" height="183px" preserveAspectRatio="none" style="width:348px;height:183px;background:#FFFFFF;" version="1.1" viewBox="0 0 348 183" width="348px" zoomAndPan="magnify"><defs/><g><!--entity User--><g id="elem_User"><ellipse cx="176.5" cy="14" fill="#F1F1F1" rx="8" ry="8" style="stroke:#181818;stroke-width:0.5;"/><path d="M176.5,22 L176.5,49 M163.5,30 L189.5,30 M176.5,49 L163.5,64 M176.5,49 L189.5,64 " fill="none" style="stroke:#181818;stroke-width:0.5;"/><text fill="#000000" font-family="sans-serif" font-size="14" lengthAdjust="spacing" textLength="32" x="160.5" y="78.4951">User</text></g><g id="elem_View Dashboard"><ellipse cx="83.3536" cy="159.3707" fill="#F1F1F1" rx="77.3536" ry="17.8707" style="stroke:#181818;stroke-width:0.5;"/><text fill="#000000" font-family="sans-serif" font-size="14" lengthAdjust="spacing" textLength="112" x="24.6333" y="163.0454">View Dashboard</text></g><g id="elem_Manage Profile"><ellipse cx="269.5678" cy="159.5136" fill="#F1F1F1" rx="73.0678" ry="17.0136" style="stroke:#181818;stroke-width:0.5;"/><text fill="#000000" font-family="sans-serif" font-size="14" lengthAdjust="spacing" textLength="101" x="216.0678" y="163.2611">Manage Profile</text></g><!--link User to View Dashboard--><g id="link_User_View Dashboard"><path d="M160.3,64.36 C143.61,84.81 117.71,116.57 100.67,137.45 " fill="none" id="User-to-View Dashboard" style="stroke:#181818;stroke-width:1.0;"/><polygon fill="#181818" points="97.39,141.47,106.1778,137.0232,100.55,137.5951,99.978,131.9673,97.39,141.47" style="stroke:#181818;stroke-width:1.0;"/></g><!--link User to Manage Profile--><g id="link_User_Manage Profile"><path d="M192.7,64.36 C209.68,85.17 236.2,117.68 253.21,138.54 " fill="none" id="User-to-Manage Profile" style="stroke:#181818;stroke-width:1.0;"/><polygon fill="#181818" points="256.48,142.54,253.871,133.043,253.3115,138.6721,247.6824,138.1126,256.48,142.54" style="stroke:#181818;stroke-width:1.0;"/></g><!--SRC=[IqmkoIzI22rEBU824GgwkdOA6c6PgUKABed56KdvYKKfcaWolebvYUcf2W55-McPEQcQ0000]--></g></svg>